<svg xmlns="http://www.w3.org/2000/svg"
     version="1.2"
     baseProfile="tiny-ps"
     viewBox="0 0 100 100">
  <title>Company Logo</title>
  <rect width="100" height="100" fill="white"/>
  <path d="M87.252,69.807 A42.190,42.190 0 0,1 66.485,88.836 L60.236,74.114 A26.196,26.196 0 0,0 73.130,62.299 Z" fill="#2aace3"/>
  <path d="M93.264,73.004 A49.000,49.000 0 0,1 69.146,95.105 L67.237,90.608 A44.115,44.115 0 0,0 88.951,70.711 Z" fill="#2aace3"/>
  <path d="M65.805,89.118 A42.190,42.190 0 0,1 37.665,90.347 L42.341,75.052 A26.196,26.196 0 0,0 59.813,74.289 Z" fill="#2aace3"/>
  <path d="M68.356,95.432 A49.000,49.000 0 0,1 35.674,96.859 L37.102,92.187 A44.115,44.115 0 0,0 66.526,90.903 Z" fill="#2aace3"/>
  <path d="M35.570,89.646 A42.190,42.190 0 0,1 8.041,54.410 L23.947,52.738 A26.196,26.196 0 0,0 41.040,74.617 Z" fill="#50514f"/>
  <path d="M33.241,96.045 A49.000,49.000 0 0,1 1.268,55.122 L6.127,54.611 A44.115,44.115 0 0,0 34.912,91.454 Z" fill="#50514f"/>
  <path d="M7.867,52.208 A42.190,42.190 0 0,1 33.515,11.164 L39.764,25.886 A26.196,26.196 0 0,0 23.839,51.371 Z" fill="#50514f"/>
  <path d="M1.067,52.564 A49.000,49.000 0 0,1 30.854,4.895 L32.763,9.392 A44.115,44.115 0 0,0 5.946,52.309 Z" fill="#50514f"/>
  <path d="M34.880,10.612 A42.190,42.190 0 0,1 68.495,12.080 L61.484,26.455 A26.196,26.196 0 0,0 40.612,25.543 Z" fill="#2aace3"/>
  <path d="M32.440,4.255 A49.000,49.000 0 0,1 71.480,5.959 L69.339,10.350 A44.115,44.115 0 0,0 34.191,8.815 Z" fill="#2aace3"/>
  <path d="M69.807,12.748 A42.190,42.190 0 0,1 89.388,34.880 L74.457,40.612 A26.196,26.196 0 0,0 62.299,26.870 Z" fill="#2aace3"/>
  <path d="M73.004,6.736 A49.000,49.000 0 0,1 95.745,32.440 L91.185,34.191 A44.115,44.115 0 0,0 70.711,11.049 Z" fill="#2aace3"/>
  <circle cx="50" cy="50" r="26.196" fill="white"/>
  <line x1="60.236" y1="74.114" x2="66.485" y2="88.836" stroke="white" stroke-width="1.2"/>
  <line x1="67.237" y1="90.608" x2="69.146" y2="95.105" stroke="white" stroke-width="1.2"/>
  <line x1="42.341" y1="75.052" x2="37.665" y2="90.347" stroke="white" stroke-width="1.2"/>
  <line x1="37.102" y1="92.187" x2="35.674" y2="96.859" stroke="white" stroke-width="1.2"/>
  <line x1="41.040" y1="74.617" x2="35.570" y2="89.646" stroke="white" stroke-width="1.2"/>
  <line x1="34.912" y1="91.454" x2="33.241" y2="96.045" stroke="white" stroke-width="1.2"/>
  <line x1="23.947" y1="52.738" x2="8.041" y2="54.410" stroke="white" stroke-width="1.2"/>
  <line x1="6.127" y1="54.611" x2="1.268" y2="55.122" stroke="white" stroke-width="1.2"/>
  <line x1="23.839" y1="51.371" x2="7.867" y2="52.208" stroke="white" stroke-width="1.2"/>
  <line x1="5.946" y1="52.309" x2="1.067" y2="52.564" stroke="white" stroke-width="1.2"/>
  <line x1="39.764" y1="25.886" x2="33.515" y2="11.164" stroke="white" stroke-width="1.2"/>
  <line x1="32.763" y1="9.392" x2="30.854" y2="4.895" stroke="white" stroke-width="1.2"/>
  <line x1="40.612" y1="25.543" x2="34.880" y2="10.612" stroke="white" stroke-width="1.2"/>
  <line x1="34.191" y1="8.815" x2="32.440" y2="4.255" stroke="white" stroke-width="1.2"/>
  <line x1="61.484" y1="26.455" x2="68.495" y2="12.080" stroke="white" stroke-width="1.2"/>
  <line x1="69.339" y1="10.350" x2="71.480" y2="5.959" stroke="white" stroke-width="1.2"/>
</svg>